<?xml version="1.0" encoding="utf-8"?>
<!-- Generator: Adobe Illustrator 22.0.1, SVG Export Plug-In . SVG Version: 6.00 Build 0)  -->
<svg version="1.1" id="Capa_1" xmlns="http://www.w3.org/2000/svg" xmlns:xlink="http://www.w3.org/1999/xlink" x="0px" y="0px"
	 viewBox="0 0 1280 800" style="enable-background:new 0 0 1280 800;" xml:space="preserve">
<style type="text/css">
	.st0{fill:none;}
	.st1{fill:#FF0000;}
	.st2{font-family:'Silom';}
	.st3{font-size:391.1155px;}
	.st4{fill:none;stroke:#000000;stroke-width:9;stroke-miterlimit:10;}
</style>
<rect x="162.7" y="259.4" class="st0" width="1002.4" height="340"/>
<text transform="matrix(1.0524 0 0 1 162.667 552.7023)"><tspan x="0" y="0" class="st1 st2 st3">N</tspan><tspan x="293.3" y="0" class="st2 st3">ITE</tspan></text>
<path class="st4" d="M842.7,587.1C789.7,645.2,711.5,682,624.3,682c-91.7,0-173.4-40.6-226.3-103.9"/>
<path class="st4" d="M394.5,227.3c52.9-63,134.4-103.4,225.8-103.4c91.4,0,172.9,40.4,225.8,103.4"/>
<path class="st4" d="M941.9,585c-65.4,100.9-182.7,168.1-316.6,168.1c-141,0-263.6-74.6-326.6-184.5"/>
<path class="st4" d="M297.3,227.4C360.6,120.2,481.1,47.6,619.6,46.9c138.2-0.7,259.2,70.4,323.8,176.5"/>
</svg>
