<?xml version="1.0" encoding="utf-8"?>
<!-- Generator: Adobe Illustrator 22.0.1, SVG Export Plug-In . SVG Version: 6.00 Build 0)  -->
<svg version="1.1" id="Capa_1" xmlns="http://www.w3.org/2000/svg" xmlns:xlink="http://www.w3.org/1999/xlink" x="0px" y="0px"
	 viewBox="0 0 58 47" style="enable-background:new 0 0 58 47;" xml:space="preserve">
<style type="text/css">
	.st0{fill:none;stroke:#FF0000;stroke-width:0.5;stroke-miterlimit:10;}
	.st1{fill:none;}
	.st2{fill:#FF0000;}
	.st3{font-family:'Silom';}
	.st4{font-size:24px;}
	.st5{fill:#FFFFFF;}
</style>
<path class="st0" d="M41.8,34c-3.2,4.2-8.2,6.8-13.8,6.8c-5.5,0-10.5-2.6-13.6-6.6"/>
<path class="st0" d="M13.7,13.7c3.1-4.6,8.4-7.6,14.3-7.6c6,0,11.2,3,14.3,7.6"/>
<path class="st0" d="M45.5,34.2C41.9,40.1,35.4,44,28,44c-7.2,0-13.5-3.7-17.1-9.2"/>
<path class="st0" d="M10,13.7C13.5,7.3,20.2,3,28,3c7.8,0,14.6,4.3,18,10.7"/>
<rect x="1.6" y="14.9" class="st1" width="58.8" height="23.1"/>
<text transform="matrix(1 0 0 1 1.5986 32.8749)"><tspan x="0" y="0" class="st2 st3 st4">N</tspan><tspan x="18" y="0" class="st5 st3 st4">ITE</tspan></text>
</svg>
